<svg width="133" height="125" xmlns="http://www.w3.org/2000/svg" preserveAspectRatio="xMidYMid meet">
 <metadata>Created by potrace 1.10, written by Peter Selinger 2001-2011</metadata>

 <g>
  <title>background</title>
  <rect fill="none" id="canvas_background" height="127" width="135" y="-1" x="-1"/>
 </g>
 <g>
  <title>Layer 1</title>
  <g id="svg_1" fill="#7d97ad" transform="translate(0,203) scale(0.05000000074505806,-0.05000000074505806) ">
   <path id="svg_2" d="m1090.003185,3990.665117c-33,-18 -64,-36 -68,-39c-50,-30 660,-1350 774,-1440c82,-65 244,8 244,111c0,17 -159,306 -353,642c-194,337 -367,636 -383,665c-53,93 -124,113 -214,61zm127,-108c5,-11 25,-35 45,-53c21,-17 38,-43 38,-57c0,-15 9,-26 20,-26c11,0 20,-18 20,-40c0,-22 8,-40 18,-40c9,0 28,-27 42,-61c14,-33 51,-95 81,-138c31,-42 52,-81 48,-86c-5,-5 9,-25 31,-45c22,-20 40,-53 40,-73c0,-20 7,-37 15,-37c16,0 46,-51 86,-145c13,-30 31,-55 41,-55c10,0 18,-13 18,-30c0,-16 18,-48 41,-71c22,-22 46,-68 52,-101c9,-43 18,-53 30,-35c12,21 16,18 17,-9c0,-20 24,-69 54,-108c78,-102 -11,-174 -112,-91c-72,58 -784,1311 -756,1330c30,19 121,-1 131,-29z"/>
   <path id="svg_3" d="m1682.003185,3991.665117c-90,-73 -72,-119 295,-755c461,-798 429,-750 513,-750c79,0 150,57 150,121c0,52 -729,1315 -793,1374c-59,54 -108,57 -165,10zm387,-764c395,-684 364,-640 454,-660l67,-15l-53,-15c-94,-26 -142,32 -397,485c-135,239 -293,511 -350,605c-58,94 -111,193 -120,220c-34,114 61,-34 399,-620z"/>
   <path id="svg_4" d="m118.003185,3562.665117c-29,-10 -63,-40 -75,-68c-28,-61 -30,-89 -3,-48c11,17 20,20 20,7c0,-12 86,-170 192,-350c105,-180 209,-361 231,-403c54,-106 108,-154 173,-154c159,0 140,76 -134,550c-300,517 -289,505 -404,466z"/>
   <path id="svg_5" d="m699.003185,3509.665117l-46,-37l121,-208c197,-339 243,-446 99,-228c-79,118 -122,152 -57,45c22,-36 100,-173 175,-305c172,-306 269,-372 358,-246c52,75 39,107 -202,524c-301,521 -330,551 -448,455z"/>
   <path id="svg_6" d="m528.003185,2529.665117c39,-43 140,-59 161,-25c6,10 -6,14 -27,8c-20,-5 -68,6 -105,25l-67,34l38,-42z"/>
   <path id="svg_7" d="m2168.003185,2077.665117c-7,-17 -7,-44 -1,-61c9,-23 -4,-30 -55,-30c-71,0 -92,-25 -92,-108c0,-62 17,-74 63,-46c31,19 42,18 57,-6c30,-47 11,-70 -57,-67c-58,3 -63,-2 -63,-61c0,-81 31,-112 114,-112c69,0 78,11 47,59c-21,33 8,81 49,81c36,0 55,-60 29,-91c-28,-34 -2,-46 76,-34c61,9 65,15 65,90c0,70 4,77 31,54c26,-21 37,-20 63,6c46,46 18,102 -44,90c-46,-9 -50,-4 -50,68c0,74 -3,77 -66,77c-58,0 -65,6 -65,55c1,64 -80,93 -101,36z"/>
   <path id="svg_8" d="m860.003185,1991.665117c-162,-82 -123,-357 57,-391c67,-13 173,30 201,83c35,65 25,73 -19,16c-84,-106 -259,-38 -259,100c0,28 -12,47 -30,47c-42,0 -37,33 10,80c77,77 240,33 240,-65c0,-53 23,-95 52,-95c52,0 34,127 -27,185c-75,71 -141,83 -225,40z"/>
   <path id="svg_9" d="m1300.003185,2001.665117c-101,-52 -72,-155 57,-197c93,-30 123,-54 110,-87c-23,-62 -187,-46 -187,19c0,16 -13,30 -30,30c-42,0 -37,-53 10,-100c80,-80 260,-31 260,71c0,53 -56,98 -150,121c-71,17 -96,47 -66,82c33,40 111,31 145,-18c21,-31 37,-38 52,-23c59,59 -113,147 -201,102z"/>
   <path id="svg_10" d="m1655.003185,2003.665117c-123,-45 -88,-163 59,-200c49,-13 94,-35 100,-51c30,-77 -119,-98 -179,-25c-26,32 -43,39 -58,24c-38,-38 69,-125 152,-125c189,0 197,172 11,226c-67,19 -90,36 -90,65c0,58 119,67 149,10c29,-53 61,-53 61,0c0,33 -109,107 -144,97c-3,0 -31,-10 -61,-21z"/>
  </g>
 </g>
</svg>