<?xml version="1.0" standalone="no"?>
<!DOCTYPE svg PUBLIC "-//W3C//DTD SVG 20010904//EN"
 "http://www.w3.org/TR/2001/REC-SVG-20010904/DTD/svg10.dtd">
<svg version="1.0" xmlns="http://www.w3.org/2000/svg"
 width="300.000000pt" height="203.000000pt" viewBox="0 0 300.000000 203.000000"
 preserveAspectRatio="xMidYMid meet">
<metadata>
Created by potrace 1.10, written by Peter Selinger 2001-2011
</metadata>
<g transform="translate(0.000000,203.000000) scale(0.050000,-0.050000)"
fill="#7d97ad" stroke="none">
<path d="M2770 3204 c-33 -18 -64 -36 -68 -39 -50 -30 660 -1350 774 -1440 82
-65 244 8 244 111 0 17 -159 306 -353 642 -194 337 -367 636 -383 665 -53 93
-124 113 -214 61z m127 -108 c5 -11 25 -35 45 -53 21 -17 38 -43 38 -57 0 -15
9 -26 20 -26 11 0 20 -18 20 -40 0 -22 8 -40 18 -40 9 0 28 -27 42 -61 14 -33
51 -95 81 -138 31 -42 52 -81 48 -86 -5 -5 9 -25 31 -45 22 -20 40 -53 40 -73
0 -20 7 -37 15 -37 16 0 46 -51 86 -145 13 -30 31 -55 41 -55 10 0 18 -13 18
-30 0 -16 18 -48 41 -71 22 -22 46 -68 52 -101 9 -43 18 -53 30 -35 12 21 16
18 17 -9 0 -20 24 -69 54 -108 78 -102 -11 -174 -112 -91 -72 58 -784 1311
-756 1330 30 19 121 -1 131 -29z"/>
<path d="M3362 3205 c-90 -73 -72 -119 295 -755 461 -798 429 -750 513 -750
79 0 150 57 150 121 0 52 -729 1315 -793 1374 -59 54 -108 57 -165 10z m387
-764 c395 -684 364 -640 454 -660 l67 -15 -53 -15 c-94 -26 -142 32 -397 485
-135 239 -293 511 -350 605 -58 94 -111 193 -120 220 -34 114 61 -34 399 -620z"/>
<path d="M1798 2776 c-29 -10 -63 -40 -75 -68 -28 -61 -30 -89 -3 -48 11 17
20 20 20 7 0 -12 86 -170 192 -350 105 -180 209 -361 231 -403 54 -106 108
-154 173 -154 159 0 140 76 -134 550 -300 517 -289 505 -404 466z"/>
<path d="M2379 2723 l-46 -37 121 -208 c197 -339 243 -446 99 -228 -79 118
-122 152 -57 45 22 -36 100 -173 175 -305 172 -306 269 -372 358 -246 52 75
39 107 -202 524 -301 521 -330 551 -448 455z"/>
<path d="M2208 1743 c39 -43 140 -59 161 -25 6 10 -6 14 -27 8 -20 -5 -68 6
-105 25 l-67 34 38 -42z"/>
<path d="M3848 1291 c-7 -17 -7 -44 -1 -61 9 -23 -4 -30 -55 -30 -71 0 -92
-25 -92 -108 0 -62 17 -74 63 -46 31 19 42 18 57 -6 30 -47 11 -70 -57 -67
-58 3 -63 -2 -63 -61 0 -81 31 -112 114 -112 69 0 78 11 47 59 -21 33 8 81 49
81 36 0 55 -60 29 -91 -28 -34 -2 -46 76 -34 61 9 65 15 65 90 0 70 4 77 31
54 26 -21 37 -20 63 6 46 46 18 102 -44 90 -46 -9 -50 -4 -50 68 0 74 -3 77
-66 77 -58 0 -65 6 -65 55 1 64 -80 93 -101 36z"/>
<path d="M2540 1205 c-162 -82 -123 -357 57 -391 67 -13 173 30 201 83 35 65
25 73 -19 16 -84 -106 -259 -38 -259 100 0 28 -12 47 -30 47 -42 0 -37 33 10
80 77 77 240 33 240 -65 0 -53 23 -95 52 -95 52 0 34 127 -27 185 -75 71 -141
83 -225 40z"/>
<path d="M2980 1215 c-101 -52 -72 -155 57 -197 93 -30 123 -54 110 -87 -23
-62 -187 -46 -187 19 0 16 -13 30 -30 30 -42 0 -37 -53 10 -100 80 -80 260
-31 260 71 0 53 -56 98 -150 121 -71 17 -96 47 -66 82 33 40 111 31 145 -18
21 -31 37 -38 52 -23 59 59 -113 147 -201 102z"/>
<path d="M3335 1217 c-123 -45 -88 -163 59 -200 49 -13 94 -35 100 -51 30 -77
-119 -98 -179 -25 -26 32 -43 39 -58 24 -38 -38 69 -125 152 -125 189 0 197
172 11 226 -67 19 -90 36 -90 65 0 58 119 67 149 10 29 -53 61 -53 61 0 0 33
-109 107 -144 97 -3 0 -31 -10 -61 -21z"/>
</g>
</svg>
